<?xml version="1.0" encoding="UTF-8"?>
<svg id="Livello_1" data-name="Livello 1" xmlns="http://www.w3.org/2000/svg" xmlns:xlink="http://www.w3.org/1999/xlink" viewBox="0 0 1920 1080">
  <defs>
    <style>
      .cls-1 {
        fill: #1a659e;
      }

      .cls-2 {
        clip-path: url(#clippath);
      }

      .cls-3 {
        fill: none;
      }

      .cls-4 {
        fill: #0e2c66;
      }

      .cls-5 {
        fill: url(#Sfumatura_senza_nome_287);
      }
    </style>
    <clipPath id="clippath">
      <rect class="cls-3" width="1920" height="1080"/>
    </clipPath>
    <linearGradient id="Sfumatura_senza_nome_287" data-name="Sfumatura senza nome 287" x1="960" y1="0" x2="960" y2="1080" gradientUnits="userSpaceOnUse">
      <stop offset="0" stop-color="#fff" stop-opacity="0"/>
      <stop offset=".17" stop-color="#e7c9f2" stop-opacity=".19"/>
      <stop offset=".56" stop-color="#b253d6" stop-opacity=".63"/>
      <stop offset=".73" stop-color="#9e25cc" stop-opacity=".8"/>
      <stop offset=".88" stop-color="#6f29a1"/>
      <stop offset=".9" stop-color="#662498"/>
      <stop offset="1" stop-color="#4a147a"/>
    </linearGradient>
  </defs>
  <rect class="cls-4" width="1920" height="1080"/>
  <g class="cls-2">
    <path class="cls-1" d="M960.47-1201.8c505.02,0,1010.05-.02,1515.07,.03,66.18,0,118.65,37.67,134.91,97.57,3.71,13.67,5.77,28.24,5.77,42.39,.27,850.32,.26,1700.64,.2,2550.96,0,82.01-58.37,139.92-140.91,139.93-1010.05,.05-2020.1,.04-3030.15,0-83.7,0-141.79-57.68-141.8-140.86-.05-849.72-.05-1699.44,0-2549.16,0-83.16,58.11-140.82,141.82-140.83,505.02-.05,1010.05-.02,1515.07-.02ZM-482.38-862.2c-.08,80.72,63.77,144.92,144.29,145.07,81.15,.16,145.8-63.3,146.03-143.33,.24-81.79-63.6-145.97-145.19-145.97-80.86,0-145.05,63.8-145.13,144.23Zm432.41,.15c-.05,80.65,63.88,144.79,144.44,144.92,81.08,.13,145.67-63.4,145.88-143.49,.21-81.75-63.68-145.85-145.34-145.81-80.79,.03-144.93,63.91-144.98,144.38Zm722.73-.1c-.07-80.44-64.24-144.26-145.08-144.28-80.9-.01-145.14,63.73-145.24,144.12-.1,81.5,64.08,145.32,145.98,145.17,80.54-.15,144.41-64.32,144.34-145.02Zm287.08,145.02c80.91,.03,145.22-63.7,145.33-144.03,.11-80.76-63.68-145.08-144.09-145.27-82.02-.19-146.29,63.5-146.23,144.92,.05,80.47,64.2,144.34,144.99,144.37Zm432.62,0c80.85,0,145.04-63.81,145.12-144.24,.08-80.72-63.77-144.91-144.3-145.06-81.93-.15-146.11,63.64-146.02,145.14,.09,80.42,64.3,144.17,145.2,144.16Zm432.29,0c80.9,.01,145.14-63.73,145.23-144.13,.1-80.73-63.74-145-144.18-145.17-81.98-.17-146.21,63.56-146.13,145.02,.07,80.44,64.24,144.26,145.08,144.28Zm577.64-144.84c-.04-80.5-64.14-144.41-144.9-144.46-80.93-.05-145.29,63.66-145.42,143.94-.13,81.59,63.94,145.47,145.8,145.35,80.61-.12,144.55-64.21,144.52-144.84ZM-337.74-286.24c81.01,.09,145.5-63.52,145.67-143.69,.17-80.89-63.47-145.36-143.75-145.61-82.11-.25-146.56,63.32-146.57,144.59-.01,80.62,63.96,144.62,144.65,144.71Zm432.41,0c81.01,.09,145.5-63.52,145.67-143.69,.17-80.89-63.47-145.36-143.75-145.61-82.11-.25-146.56,63.32-146.57,144.59-.01,80.62,63.96,144.62,144.65,144.71Zm432.87-289.3c-80.85,0-145.04,63.82-145.11,144.25-.07,80.72,63.78,144.9,144.31,145.05,81.92,.15,146.1-63.65,146.01-145.15-.09-80.41-64.31-144.16-145.21-144.15Zm432.16,289.3c80.95,.06,145.32-63.63,145.46-143.9,.14-80.81-63.61-145.19-143.96-145.39-82.04-.21-146.39,63.45-146.36,144.8,.03,80.52,64.11,144.44,144.86,144.5Zm432.43,0c80.94,.05,145.31-63.64,145.44-143.92,.13-80.8-63.62-145.17-143.98-145.38-82.04-.21-146.37,63.45-146.34,144.82,.03,80.51,64.13,144.43,144.88,144.48Zm432.71-289.3c-80.89,0-145.1,63.76-145.18,144.18-.09,80.72,63.75,144.96,144.24,145.12,81.96,.17,146.16-63.6,146.08-145.07-.08-80.43-64.28-144.22-145.14-144.22Zm431.86,289.3c81.01,.1,145.51-63.52,145.68-143.68,.17-80.9-63.47-145.37-143.74-145.62-82.11-.25-146.57,63.32-146.58,144.58-.01,80.62,63.95,144.63,144.64,144.72ZM-192.06,.53c.1-80.73-63.74-145.01-144.18-145.18-81.19-.17-145.89,63.24-146.14,143.22-.26,81.83,63.53,146.06,145.08,146.07,80.91,.02,145.14-63.73,145.24-144.12ZM95.36-144.65C14.45-144.68-49.86-80.95-49.97-.62c-.11,80.76,63.68,145.08,144.09,145.27,82.02,.19,146.29-63.5,146.23-144.92-.05-80.47-64.2-144.34-144.99-144.37ZM672.76,.44c.08-80.73-63.76-144.93-144.27-145.09-81.15-.16-145.82,63.29-146.05,143.31-.24,81.79,63.59,145.99,145.17,145.99,80.87,0,145.07-63.78,145.15-144.21Zm287.25-145.09c-80.87,0-145.07,63.78-145.15,144.21-.08,80.73,63.76,144.93,144.26,145.09,81.95,.16,146.14-63.61,146.05-145.1-.08-80.42-64.29-144.2-145.16-144.2Zm432.59,0c-80.91-.03-145.22,63.69-145.34,144.03-.11,80.76,63.68,145.08,144.08,145.27,82.02,.19,146.29-63.5,146.24-144.92-.05-80.47-64.19-144.34-144.98-144.38ZM1679.66-.19c-.04,80.63,63.91,144.73,144.52,144.84,81.05,.12,145.61-63.45,145.8-143.56,.2-81.74-63.71-145.79-145.42-145.74-80.76,.05-144.87,63.96-144.9,144.46Zm722.73-.22c-.08-80.43-64.27-144.23-145.12-144.24-80.9,0-145.11,63.75-145.2,144.16-.09,81.5,64.09,145.29,146.02,145.14,80.53-.15,144.38-64.34,144.3-145.06ZM-337.5,575.54c80.94,.05,145.3-63.65,145.43-143.93,.13-80.8-63.62-145.17-143.98-145.37-82.04-.21-146.37,63.46-146.33,144.82,.03,80.5,64.13,144.42,144.88,144.48ZM240.35,430.38c-.09-80.4-64.32-144.15-145.22-144.14-80.84,.01-145.02,63.82-145.1,144.26-.07,81.46,64.15,145.21,146.12,145.03,80.45-.17,144.29-64.44,144.2-145.16Zm287.62,145.16c80.73-.07,144.77-64.02,144.79-144.57,.02-80.62-63.95-144.63-144.63-144.73-81.79-.1-145.84,63.85-145.69,145.47,.15,80.26,64.54,143.9,145.53,143.83Zm286.88-144.79c-.03,80.62,63.94,144.69,144.56,144.79,81.04,.11,145.57-63.47,145.75-143.61,.19-81.72-63.74-145.75-145.46-145.69-80.75,.06-144.83,63.98-144.85,144.51Zm722.73-.11c-.05-80.47-64.18-144.36-144.97-144.39-80.92-.04-145.24,63.69-145.35,144.01-.12,81.57,63.98,145.42,145.87,145.29,80.57-.13,144.5-64.26,144.45-144.91Zm286.97,144.91c80.94,.05,145.31-63.64,145.44-143.92,.13-80.8-63.62-145.17-143.98-145.38-82.04-.21-146.37,63.45-146.34,144.82,.03,80.51,64.13,144.43,144.88,144.48Zm577.85-144.46c.04-80.63-63.91-144.73-144.52-144.84-81.05-.12-145.61,63.45-145.8,143.56-.2,81.74,63.71,145.79,145.42,145.74,80.76-.05,144.87-63.96,144.9-144.46ZM-337.56,1006.43c80.97,.06,145.36-63.6,145.5-143.86,.14-80.83-63.58-145.22-143.92-145.44-82.05-.22-146.42,63.42-146.4,144.76,.02,80.55,64.07,144.48,144.82,144.54ZM95.41,717.13c-80.92-.04-145.26,63.67-145.39,143.98-.12,80.78,63.65,145.13,144.03,145.32,82.02,.2,146.33-63.48,146.28-144.87-.04-80.49-64.16-144.38-144.93-144.43Zm577.34,145.23c.11-80.75-63.7-145.05-144.13-145.23-81.2-.18-145.93,63.21-146.19,143.17-.27,81.85,63.5,146.1,145.03,146.13,80.91,.03,145.19-63.71,145.29-144.07Zm142.09-.84c-.05,80.65,63.89,144.78,144.46,144.9,81.08,.13,145.66-63.41,145.86-143.5,.21-81.74-63.69-145.84-145.35-145.8-80.78,.04-144.92,63.92-144.96,144.4Zm577.08-144.4c-80.7,.09-144.68,64.08-144.67,144.69,0,80.57,64.04,144.54,144.75,144.61,81.76,.08,145.74-63.91,145.57-145.58-.17-80.19-64.64-143.81-145.65-143.72Zm578.06,144.88c.04-80.64-63.9-144.76-144.48-144.88-81.07-.12-145.64,63.42-145.84,143.52-.2,81.74,63.7,145.82,145.38,145.78,80.78-.04,144.9-63.93,144.94-144.42Zm432.41-.13c.02-80.62-63.94-144.65-144.6-144.75-81.02-.1-145.54,63.5-145.71,143.65-.18,81.7,63.77,145.72,145.5,145.65,80.74-.06,144.8-64,144.82-144.54ZM-192.06,1293c.06-80.68-63.83-144.84-144.38-144.98-81.11-.14-145.72,63.36-145.94,143.42-.22,81.76,63.65,145.9,145.28,145.87,80.82-.02,144.98-63.86,145.04-144.32Zm432.41-.5c-.03-80.5-64.13-144.42-144.88-144.48-80.94-.05-145.3,63.65-145.43,143.93-.13,81.6,63.94,145.49,145.78,145.37,80.62-.11,144.57-64.19,144.53-144.82Zm432.41,.37c.04-80.63-63.91-144.73-144.51-144.85-81.06-.12-145.61,63.45-145.81,143.56-.2,81.74,63.71,145.79,145.41,145.74,80.76-.05,144.87-63.95,144.91-144.45Zm287.43-144.85c-80.92-.03-145.23,63.69-145.34,144.02-.11,80.77,63.68,145.09,144.08,145.28,82.02,.19,146.29-63.49,146.24-144.92-.05-80.47-64.19-144.35-144.98-144.38Zm577.39,144.44c-.04-80.49-64.15-144.39-144.92-144.44-80.92-.05-145.27,63.67-145.4,143.96-.13,81.59,63.96,145.46,145.82,145.34,80.59-.12,144.54-64.22,144.5-144.86Zm432.41,.48c.05-80.65-63.87-144.79-144.44-144.92-81.08-.13-145.67,63.4-145.88,143.48-.21,81.75,63.68,145.85,145.34,145.82,80.79-.03,144.93-63.91,144.98-144.38Zm287.08-144.92c-80.79,.03-144.93,63.91-144.99,144.37-.05,80.65,63.87,144.8,144.43,144.93,81.89,.13,146-63.71,145.89-145.27-.11-80.33-64.42-144.06-145.33-144.03Z"/>
  </g>
  <rect class="cls-5" width="1920" height="1080"/>
</svg>